<?xml version="1.0" standalone="no"?>
<!DOCTYPE svg PUBLIC "-//W3C//DTD SVG 20010904//EN"
 "http://www.w3.org/TR/2001/REC-SVG-20010904/DTD/svg10.dtd">
<svg version="1.0" xmlns="http://www.w3.org/2000/svg"
 width="1200.000000pt" height="1200.000000pt" viewBox="0 0 1200.000000 1200.000000"
 preserveAspectRatio="xMidYMid meet">
<metadata>
Created by potrace 1.14, written by Peter Selinger 2001-2017
</metadata>
<g transform="translate(0.000000,1200.000000) scale(0.100000,-0.100000)"
fill="#000000" stroke="none">
<path d="M7895 11755 c-89 -21 -145 -39 -250 -79 -104 -40 -328 -174 -430
-258 -45 -37 -227 -217 -265 -263 -260 -310 -465 -741 -564 -1185 -26 -118
-30 -142 -41 -220 -3 -25 -8 -56 -10 -70 -2 -14 -6 -45 -9 -70 -2 -25 -8 -76
-13 -115 -10 -87 -10 -406 -1 -500 44 -432 200 -834 436 -1126 246 -305 620
-502 947 -501 153 0 267 27 423 98 41 19 75 34 77 34 10 0 200 114 248 148 28
20 57 40 62 44 6 4 46 37 90 74 273 229 500 547 651 911 32 77 91 239 99 268
1 6 5 17 8 25 3 8 15 53 27 100 20 82 24 95 35 150 13 61 34 190 40 245 4 33
9 71 12 85 12 57 10 518 -3 609 -7 51 -15 125 -19 165 -4 58 -22 157 -50 280
-17 75 -87 256 -134 350 -101 197 -209 345 -349 476 -98 92 -94 88 -184 148
-134 90 -276 151 -413 177 -22 5 -47 10 -55 12 -8 2 -71 6 -140 8 -106 3 -140
0 -225 -20z"/>
<path d="M3718 11735 c-2 -1 -38 -5 -80 -9 -381 -32 -777 -348 -998 -794 -79
-160 -121 -288 -155 -469 -3 -16 -7 -37 -9 -48 -2 -11 -7 -49 -11 -85 -4 -36
-9 -74 -12 -85 -2 -11 -6 -123 -8 -250 -2 -210 3 -332 20 -455 12 -84 15 -105
19 -125 2 -11 7 -40 11 -65 4 -25 16 -81 26 -125 11 -44 21 -87 23 -95 12 -48
32 -115 62 -207 188 -562 528 -1024 959 -1305 157 -103 426 -224 535 -242 19
-3 49 -8 65 -11 41 -7 181 -7 230 0 249 36 480 145 654 308 301 282 493 711
548 1224 9 85 9 379 0 494 -65 824 -425 1570 -957 1986 -242 189 -565 331
-795 349 -38 3 -82 7 -97 9 -15 2 -28 2 -30 0z"/>
<path d="M10665 8288 c-720 -121 -1348 -718 -1645 -1563 -41 -115 -76 -251
-115 -435 -4 -20 -17 -118 -21 -157 -1 -17 -8 -60 -15 -95 -31 -166 -14 -468
37 -673 71 -285 201 -528 379 -711 258 -266 579 -373 928 -310 352 64 610 189
904 439 203 173 419 455 571 748 138 265 261 656 288 914 2 28 7 61 10 75 3
14 7 131 9 260 3 171 0 260 -11 325 -89 565 -421 1014 -854 1153 -171 55 -277
62 -465 30z"/>
<path d="M1045 8059 c-87 -12 -108 -16 -190 -39 -104 -28 -282 -116 -368 -181
-146 -110 -268 -260 -337 -414 -34 -75 -82 -231 -99 -316 -6 -30 -12 -63 -15
-74 -2 -12 -7 -48 -11 -80 -4 -33 -10 -69 -12 -80 -3 -11 -6 -112 -8 -225 -3
-296 27 -508 112 -789 81 -269 202 -520 367 -761 28 -41 53 -77 56 -80 3 -3
31 -38 64 -78 301 -377 715 -651 1161 -767 367 -95 701 0 981 279 210 211 313
426 370 776 2 14 6 34 9 45 8 39 19 221 19 325 0 100 -12 298 -18 310 -2 3 -6
28 -10 55 -8 64 -13 94 -32 175 -9 36 -17 74 -20 86 -20 104 -111 349 -186
504 -216 448 -525 805 -920 1064 -174 114 -381 210 -528 245 -106 25 -284 34
-385 20z"/>
<path d="M6008 5775 c-2 -1 -43 -5 -93 -9 -120 -8 -189 -17 -310 -41 -38 -8
-82 -16 -96 -19 -47 -8 -221 -57 -314 -87 -276 -92 -563 -231 -799 -388 -55
-36 -107 -70 -115 -76 -9 -5 -18 -12 -21 -16 -3 -3 -39 -31 -81 -62 -201 -150
-414 -361 -571 -564 -482 -624 -877 -1325 -1088 -1930 -66 -189 -67 -193 -100
-303 -48 -165 -49 -167 -85 -320 -18 -80 -43 -181 -55 -225 -24 -90 -36 -336
-21 -415 5 -25 12 -63 15 -85 7 -45 32 -134 51 -180 7 -16 18 -46 25 -65 49
-127 167 -297 289 -416 135 -134 345 -254 506 -290 149 -34 407 -44 565 -23
98 13 132 19 160 24 14 2 37 7 53 10 61 11 84 16 122 27 22 5 47 12 55 13 121
27 383 116 794 270 312 116 521 186 676 225 111 28 254 59 295 65 11 1 43 5
70 8 28 4 73 9 100 11 151 14 192 19 210 22 30 6 282 5 345 -1 104 -11 282
-39 322 -51 9 -3 25 -6 35 -8 157 -31 675 -214 948 -336 22 -9 81 -34 130 -55
50 -20 115 -47 145 -59 30 -13 71 -29 90 -36 33 -12 77 -30 125 -51 99 -42
306 -93 430 -106 127 -13 359 -8 450 10 37 8 95 18 100 18 20 -1 224 78 285
110 259 135 450 371 510 628 71 310 34 673 -108 1056 -101 272 -298 695 -396
850 -55 85 -126 195 -147 227 -11 15 -19 29 -19 32 0 18 -469 702 -587 856
-361 472 -606 734 -993 1064 -132 113 -462 335 -620 418 -266 139 -545 222
-885 264 -43 5 -392 13 -397 9z"/>
</g>
</svg>
